<svg width="12" height="12" viewBox="0 0 12 12" fill="none" xmlns="http://www.w3.org/2000/svg">
<g clip-path="url(#clip0_5560_89511)">
<path d="M6.09191 7.15385C5.837 7.15385 5.63037 6.94719 5.63037 6.69231V3.46154C5.63037 3.20665 5.837 3 6.09191 3C6.34682 3 6.55345 3.20665 6.55345 3.46154V6.69231C6.55345 6.94722 6.34682 7.15385 6.09191 7.15385Z" fill="white"/>
<path d="M6.09221 8.99985C6.47456 8.99985 6.78452 8.6899 6.78452 8.30754C6.78452 7.92519 6.47456 7.61523 6.09221 7.61523C5.70986 7.61523 5.3999 7.92519 5.3999 8.30754C5.3999 8.6899 5.70986 8.99985 6.09221 8.99985Z" fill="white"/>
<circle cx="6" cy="6" r="5.5" stroke="white"/>
</g>
<defs>
<clipPath id="clip0_5560_89511">
<rect width="12" height="12" fill="white"/>
</clipPath>
</defs>
</svg>
