<svg width="20" height="20" viewBox="0 0 20 20" fill="none" xmlns="http://www.w3.org/2000/svg">
<path d="M17.875 6.90312H18.375V6.40312V5.16562C18.375 4.42365 17.8164 3.7375 17.0312 3.7375H2.96875C2.18361 3.7375 1.625 4.42365 1.625 5.16562V6.40312V6.90312H2.125H17.875ZM2.125 7.14062H1.625V7.64062V14.4469C1.625 15.1888 2.18361 15.875 2.96875 15.875H17.0312C17.8164 15.875 18.375 15.1888 18.375 14.4469V7.64062V7.14062H17.875H2.125ZM2.96875 3.5H17.0312C17.7969 3.5 18.5 4.20175 18.5 5.16562V14.4469C18.5 15.4108 17.7969 16.1125 17.0312 16.1125H2.96875C2.20312 16.1125 1.5 15.4108 1.5 14.4469V5.16562C1.5 4.20175 2.20312 3.5 2.96875 3.5Z" fill="white" stroke="white"/>
<path d="M4.9375 13.0184H4.375C4.37498 13.0184 4.37495 13.0184 4.37491 13.0184C4.37357 13.0184 4.36336 13.0185 4.34723 13.0008C4.32997 12.9818 4.3125 12.9474 4.3125 12.8996V12.2809C4.3125 12.2331 4.32997 12.1987 4.34723 12.1797C4.36336 12.1619 4.37357 12.1621 4.37491 12.1621C4.37495 12.1621 4.37498 12.1621 4.375 12.1621H4.9375C4.93752 12.1621 4.93755 12.1621 4.93759 12.1621C4.93893 12.1621 4.94914 12.1619 4.96527 12.1797C4.98253 12.1987 5 12.2331 5 12.2809V12.8996C5 12.9474 4.98253 12.9818 4.96527 13.0008C4.94914 13.0185 4.93893 13.0184 4.93759 13.0184C4.93755 13.0184 4.93752 13.0184 4.9375 13.0184Z" fill="white" stroke="white"/>
</svg>
