<svg width="20" height="20" viewBox="0 0 20 20" fill="none" xmlns="http://www.w3.org/2000/svg">
<path d="M16.3594 6.09766C16.3594 5.34872 15.9254 4.67604 15.2696 4.35756C15.4966 3.18904 14.6171 2.08401 13.4176 2.05525C12.7485 1.38264 11.7805 1 10.7344 1C9.52314 1 8.39821 1.5362 7.7604 2.39226C7.22219 2.07631 6.58024 1.97625 5.94743 2.11853C5.05734 2.31948 4.32296 3.05189 4.12008 3.94117C4.01029 4.4232 4.04108 4.91437 4.20449 5.36176C3.4943 5.65356 3 6.35816 3 7.15234C3 8.05881 3.63707 8.83548 4.496 9.03552C4.52346 9.15948 4.54564 9.20325 4.64651 9.51245C4.88698 10.2336 5.45552 10.8043 6.16406 11.0551V11.8984C6.16406 12.2682 6.24601 12.6285 6.40298 12.9573L5.26593 13.7153C5.19097 13.7653 5.13806 13.842 5.11813 13.9299L4.06344 18.5705C4.03528 18.6943 4.07606 18.8237 4.17018 18.9089C4.26461 18.9945 4.39743 19.0219 4.51741 18.982L7.57031 17.9643L10.6232 18.982C10.6979 19.0067 10.7766 19.0048 10.8455 18.982L13.8714 17.9733L15.8506 18.9629C15.9721 19.0237 16.1179 19.009 16.2248 18.925C16.3318 18.8411 16.3808 18.7031 16.3506 18.5705L16.1173 17.5438C16.0742 17.3545 15.8858 17.2357 15.6965 17.2789C15.5072 17.322 15.3886 17.5103 15.4316 17.6997L15.5003 18.0016L14.0556 17.2793C13.9722 17.2376 13.8757 17.2307 13.7872 17.2603L12.0225 17.8485C12.7805 17.008 13.1953 15.9316 13.1953 14.7914V13.8147C13.2911 13.6916 13.3648 13.5543 13.4152 13.405L14.6414 14.2225L14.7304 14.614C14.7735 14.8037 14.9623 14.9219 15.1511 14.8789C15.3404 14.8359 15.4591 14.6476 15.416 14.4582L15.2959 13.9299C15.276 13.8421 15.2231 13.7653 15.1482 13.7153L13.6458 12.7136L14.232 10.9549C14.2439 10.9191 14.25 10.8816 14.25 10.8438V9.95219C14.9623 9.65561 15.5045 9.03376 15.6936 8.27646L15.9366 7.30429C16.2099 6.96236 16.3594 6.53732 16.3594 6.09766ZM5.31353 9.29012C5.22922 9.01496 5.16506 8.90973 5.16562 8.73096C5.16685 8.34512 5.48259 8.03125 5.86945 8.03125H6.16406V8.29738C6.16406 8.6731 6.31038 9.02628 6.57606 9.29199L7.25289 9.96878L7.38374 10.4922H6.98144C6.21219 10.4922 5.54721 9.99086 5.31353 9.29012ZM13.5469 7.32812H12.8437C12.0683 7.32812 11.4375 7.95897 11.4375 8.73437V10.4922H10.7344C10.5402 10.4922 10.3828 10.6496 10.3828 10.8437C10.3828 11.0379 10.5402 11.1953 10.7344 11.1953H11.7891C11.9832 11.1953 12.1406 11.0379 12.1406 10.8437V8.73437C12.1406 8.34667 12.456 8.03125 12.8437 8.03125H13.5469V10.7867L12.7505 13.1761C12.7175 13.2758 12.6637 13.3647 12.5906 13.4405C12.4584 13.5776 12.2737 13.6563 12.0837 13.6563H9.44836C9.12527 13.6563 8.84483 13.4373 8.7664 13.1238L7.9114 9.70381C7.89596 9.642 7.86397 9.58558 7.81894 9.54047L7.07327 8.79481C6.94038 8.66195 6.86722 8.48529 6.86722 8.29742V5.57031C6.86722 5.28569 7.03717 5.04005 7.28094 4.92952C7.45806 5.50355 7.99359 5.92187 8.625 5.92187C8.95237 5.92187 9.26885 5.80558 9.51828 5.60111C9.88707 5.81176 10.302 5.92187 10.7344 5.92187C11.4576 5.92187 12.136 5.60624 12.6007 5.06526C13.1753 5.36451 13.5469 5.96371 13.5469 6.625V7.32812ZM6.86719 11.8984V11.1921C6.90526 11.1939 6.94334 11.1953 6.98144 11.1953H7.55952L8.0843 13.2944C8.11175 13.4041 8.1518 13.5079 8.20228 13.6046C7.43823 13.4158 6.86719 12.7273 6.86719 11.8984ZM7.45915 17.2603L4.88747 18.1175L5.7727 14.2225L6.7935 13.5421C7.17916 13.972 7.70236 14.252 8.27347 14.334V14.7914C8.27347 15.9316 8.68824 17.008 9.44621 17.8485L7.68151 17.2602C7.6093 17.2361 7.53132 17.2361 7.45915 17.2603ZM11.3594 17.5262L10.7344 18.1512L10.1094 17.5262C9.37885 16.7957 8.97656 15.8245 8.97656 14.7914V14.3594H12.0837C12.2229 14.3594 12.3605 14.3381 12.4922 14.2979V14.7914C12.4922 15.8245 12.0899 16.7957 11.3594 17.5262ZM15.3508 6.90885C15.3139 6.9509 15.2876 7.00117 15.274 7.05549L15.0114 8.10603C14.9014 8.54653 14.6238 8.92232 14.25 9.16128V6.625C14.25 5.58124 13.5885 4.64781 12.604 4.3024C12.4528 4.24928 12.2848 4.30528 12.1955 4.43842C11.8682 4.92702 11.3219 5.21875 10.7344 5.21875C10.3503 5.21875 9.98576 5.09725 9.68 4.86743C9.52553 4.75124 9.3046 4.78148 9.18753 4.93743C9.05338 5.11623 8.84835 5.21875 8.625 5.21875C8.2373 5.21875 7.92187 4.90333 7.92187 4.51562C7.92187 4.32149 7.76444 4.16406 7.57031 4.16406C6.79491 4.16406 6.16406 4.79491 6.16406 5.57031V7.32812H5.86945C5.24089 7.32812 4.70627 7.74318 4.5268 8.31327C4.04636 8.14399 3.70312 7.68324 3.70312 7.15234C3.70312 6.54741 4.15344 6.02418 4.75053 5.93527C4.99716 5.89853 5.12832 5.62319 5.00137 5.40859C4.77121 5.01948 4.7017 4.5538 4.80562 4.09744C4.94959 3.46663 5.47064 2.94699 6.10201 2.80446C6.65242 2.68071 7.21084 2.81002 7.63412 3.1594C7.80329 3.29911 8.05923 3.25123 8.16572 3.05808C8.61973 2.23497 9.62794 1.70312 10.7344 1.70312C11.6282 1.70312 12.4779 2.05497 13.0072 2.64433C13.1313 2.78246 13.276 2.75781 13.3711 2.75781C14.244 2.75781 14.8339 3.63819 14.5155 4.44166C14.4787 4.53468 14.4832 4.63895 14.528 4.72843C14.5727 4.81793 14.6535 4.8841 14.75 4.91036C15.2836 5.05566 15.6562 5.54387 15.6562 6.09766C15.6562 6.39638 15.5478 6.68445 15.3508 6.90885Z" fill="white" stroke="white" stroke-width="0.2"/>
<mask id="path-2-inside-1_5877_11415" fill="white">
<path d="M9.67969 7.32812H8.625C8.43087 7.32812 8.27344 7.48555 8.27344 7.67969C8.27344 7.87382 8.43087 8.03125 8.625 8.03125H9.67969C9.87382 8.03125 10.0312 7.87382 10.0312 7.67969C10.0312 7.48555 9.87382 7.32812 9.67969 7.32812Z"/>
</mask>
<path d="M9.67969 7.32812H8.625C8.43087 7.32812 8.27344 7.48555 8.27344 7.67969C8.27344 7.87382 8.43087 8.03125 8.625 8.03125H9.67969C9.87382 8.03125 10.0312 7.87382 10.0312 7.67969C10.0312 7.48555 9.87382 7.32812 9.67969 7.32812Z" fill="white"/>
<path d="M9.67969 6.32812H8.625V8.32812H9.67969V6.32812ZM8.625 6.32812C7.87858 6.32812 7.27344 6.93327 7.27344 7.67969H9.27344C9.27344 8.03784 8.98315 8.32812 8.625 8.32812V6.32812ZM7.27344 7.67969C7.27344 8.4261 7.87858 9.03125 8.625 9.03125V7.03125C8.98315 7.03125 9.27344 7.32154 9.27344 7.67969H7.27344ZM8.625 9.03125H9.67969V7.03125H8.625V9.03125ZM9.67969 9.03125C10.4261 9.03125 11.0312 8.4261 11.0312 7.67969H9.03125C9.03125 7.32154 9.32153 7.03125 9.67969 7.03125V9.03125ZM11.0312 7.67969C11.0312 6.93327 10.4261 6.32812 9.67969 6.32812V8.32812C9.32153 8.32812 9.03125 8.03784 9.03125 7.67969H11.0312Z" fill="white" mask="url(#path-2-inside-1_5877_11415)"/>
<path d="M15.2617 16.082C15.2617 16.0001 15.3282 15.9336 15.4102 15.9336C15.4921 15.9336 15.5586 16.0001 15.5586 16.082C15.5586 16.164 15.4921 16.2305 15.4102 16.2305C15.3282 16.2305 15.2617 16.164 15.2617 16.082Z" fill="#015BAA" stroke="#015BAA"/>
</svg>
